<?xml version="1.0" standalone="no"?>
<!DOCTYPE svg PUBLIC "-//W3C//DTD SVG 20010904//EN"
 "http://www.w3.org/TR/2001/REC-SVG-20010904/DTD/svg10.dtd">
<svg version="1.0" xmlns="http://www.w3.org/2000/svg"
 width="2172.000000pt" height="400.000000pt" viewBox="0 0 2172.000000 400.000000"
 preserveAspectRatio="xMidYMid meet">
<metadata>
Created by potrace 1.16, written by Peter Selinger 2001-2019
</metadata>
<g transform="translate(0.000000,400.000000) scale(0.100000,-0.100000)"
fill="#000000" stroke="none">
<path d="M6876 3912 c-3 -5 -933 -7 -2068 -5 -1225 3 -2107 1 -2171 -5 -100
-8 -110 -11 -140 -39 -18 -16 -48 -40 -67 -53 -19 -13 -60 -45 -90 -70 -30
-26 -102 -85 -159 -131 -208 -168 -230 -185 -305 -246 -56 -46 -84 -63 -106
-63 -23 0 -30 -4 -30 -20 0 -11 -7 -20 -15 -20 -8 0 -12 -6 -9 -14 4 -9 -10
-26 -37 -46 -141 -102 -268 -238 -196 -211 34 13 176 18 179 6 1 -5 -23 -30
-53 -54 -94 -75 -120 -99 -111 -105 4 -2 107 -6 228 -7 120 -1 222 -4 226 -6
15 -8 -7 -35 -66 -81 -85 -66 -112 -82 -138 -82 -19 0 -20 -2 -8 -10 18 -13
-2 -32 -205 -195 -77 -62 -150 -121 -162 -131 -41 -36 -63 -54 -155 -126 -51
-39 -99 -78 -107 -86 -8 -8 -67 -56 -131 -108 -76 -60 -129 -95 -150 -99 -42
-7 -50 -12 -50 -31 0 -8 -8 -14 -17 -14 -13 0 -15 -2 -5 -9 10 -6 9 -12 -5
-28 -37 -41 -205 -163 -224 -163 -5 0 -9 -6 -9 -14 0 -7 -17 -26 -38 -42 -20
-15 -39 -30 -42 -34 -3 -3 -30 -25 -60 -50 -30 -25 -61 -50 -68 -57 -7 -7 -40
-34 -73 -59 -33 -25 -71 -56 -84 -68 -12 -11 -52 -46 -88 -76 -36 -30 -66 -61
-66 -67 -1 -15 5 -16 28 -4 10 6 59 13 109 16 74 5 91 4 86 -7 -5 -14 -145
-127 -176 -142 -10 -5 -18 -16 -18 -24 0 -11 7 -13 33 -8 17 4 1323 6 2902 5
3844 -2 3815 -2 3815 -10 0 -4 -15 -29 -33 -55 -198 -291 -312 -460 -379 -564
-31 -47 -67 -98 -82 -113 -43 -46 -29 -85 22 -58 32 16 112 23 112 10 0 -15
-77 -119 -102 -137 -49 -36 -30 -37 439 -34 413 3 458 5 470 20 8 9 47 67 88
129 103 154 102 153 197 153 64 0 80 -3 85 -16 3 -10 0 -22 -8 -28 -8 -6 -31
-32 -52 -59 -37 -45 -38 -47 -15 -47 13 0 28 4 34 9 10 10 34 14 82 12 24 -1
32 -5 32 -20 0 -10 -7 -24 -15 -31 -8 -7 -15 -16 -15 -21 0 -5 -12 -27 -26
-49 -15 -22 -24 -43 -21 -46 8 -8 2079 -8 2105 0 14 5 34 30 52 66 35 69 67
94 75 58 2 -13 6 -45 7 -73 l3 -50 567 -3 566 -2 24 28 c13 16 57 82 98 147
110 174 118 181 217 190 84 7 282 -2 301 -14 7 -4 16 -36 21 -73 5 -36 17 -80
26 -98 25 -48 96 -115 157 -147 50 -26 63 -28 228 -34 96 -4 465 -5 820 -3
355 3 654 4 665 4 15 0 31 17 55 58 42 69 71 97 83 77 4 -7 10 -41 14 -74 l6
-61 566 2 566 3 40 62 c67 103 68 103 152 103 47 0 73 -4 73 -11 0 -6 -21 -43
-46 -81 -25 -38 -44 -71 -41 -74 2 -3 257 -5 566 -5 631 1 581 -5 681 81 93
80 115 90 198 90 77 0 76 0 71 -55 -1 -16 -3 -46 -3 -65 -1 -27 -6 -35 -26
-41 -14 -4 -20 -8 -15 -8 6 -1 228 -2 495 -2 l485 0 20 25 c11 13 31 41 45 61
95 139 108 146 127 70 7 -27 20 -74 30 -102 l17 -52 310 -3 c295 -3 312 -2
327 16 15 17 21 18 60 7 74 -21 688 -31 1593 -26 804 4 850 5 867 22 10 10 91
128 181 263 90 135 181 268 201 295 20 28 37 58 37 69 0 16 -5 18 -39 12 -30
-5 -42 -2 -56 14 -14 16 -15 23 -6 34 16 19 90 31 103 18 8 -8 20 -7 39 4 17
8 29 10 29 4 0 -5 -4 -10 -9 -10 -5 0 -11 -7 -14 -14 -4 -11 -1 -13 10 -9 13
5 15 2 10 -11 -4 -10 -3 -15 3 -11 6 3 10 13 10 21 0 8 7 14 15 14 8 0 15 7
15 15 0 9 6 18 14 21 8 3 16 14 19 25 6 21 -5 18 -40 -14 -35 -31 -27 -4 14
50 21 26 106 151 190 277 130 194 153 235 153 266 0 41 -22 59 -45 40 -8 -6
-35 -10 -62 -8 -40 3 -48 6 -51 24 -2 15 7 29 27 44 17 12 31 30 31 41 0 17
-8 19 -100 19 -93 0 -100 1 -100 20 0 20 -7 20 -708 20 l-709 0 1 -22 c1 -27
18 -26 -249 -8 -123 9 -353 9 -830 3 l-660 -8 -52 -79 c-64 -98 -81 -116 -92
-98 -4 7 -23 21 -42 30 -28 14 -38 29 -59 84 l-25 67 -289 3 c-182 2 -294 -1
-302 -7 -7 -5 -26 -32 -43 -59 l-30 -48 -3 58 -3 59 -706 3 -705 2 -115 -70
c-277 -169 -286 -173 -305 -166 -8 3 -14 16 -14 30 0 42 -10 56 -41 56 -16 0
-31 6 -33 13 -13 43 -39 107 -50 123 -14 18 -28 19 -298 16 -245 -3 -285 -5
-301 -20 -16 -14 -25 -14 -75 -3 -35 8 -163 15 -330 18 -150 3 -271 9 -270 13
5 12 111 98 155 126 l43 26 2292 -1 c1398 0 2350 3 2438 9 80 6 235 14 345 20
110 5 234 14 275 20 156 21 266 38 310 48 25 6 72 16 105 23 142 30 227 77
445 243 155 118 199 153 439 353 85 70 206 168 270 216 181 138 277 241 336
358 25 48 26 58 23 173 -3 107 -6 127 -30 177 -15 31 -42 72 -60 90 -18 19
-55 66 -82 104 -46 64 -58 74 -135 113 -103 50 -149 67 -259 93 -46 11 -96 25
-110 31 l-27 11 25 7 c18 6 8 8 -37 9 -34 1 -63 6 -65 12 -3 10 -79 31 -87 24
-4 -5 10 -10 52 -19 15 -4 27 -11 27 -18 0 -11 -40 -9 -195 11 -251 33 -393
34 -4670 37 -2511 2 -4282 -1 -4313 -6 -57 -10 -80 -26 -288 -200 -184 -154
-365 -303 -563 -462 -108 -87 -215 -174 -238 -193 -44 -37 -57 -63 -25 -50 26
11 192 13 199 2 3 -6 -3 -16 -13 -24 -71 -51 -154 -128 -154 -143 0 -10 -6
-21 -12 -24 -7 -4 -2 -4 12 0 77 18 131 21 285 18 94 -2 174 -4 179 -4 15 0
-32 -46 -109 -105 -57 -43 -80 -55 -108 -55 -23 0 -40 -6 -49 -18 -7 -10 -21
-21 -30 -25 -10 -3 -18 -14 -18 -23 0 -15 3 -15 23 4 13 12 28 22 34 22 6 0
16 7 23 15 14 16 34 21 28 6 -1 -5 -31 -31 -64 -58 -34 -26 -130 -103 -213
-170 -83 -68 -155 -123 -160 -123 -13 0 -19 43 -10 68 7 19 4 21 -52 24 -33 1
-64 -1 -69 -6 -5 -5 -29 -12 -53 -16 -37 -5 -44 -4 -40 9 3 13 -5 16 -46 15
-28 -1 -58 -7 -66 -14 -13 -10 -19 -10 -35 5 -19 17 -21 17 -38 2 -22 -20 -41
-22 -47 -4 -7 16 -64 14 -75 -2 -6 -10 -12 -10 -29 -2 -29 16 -281 17 -310 2
-17 -9 -22 -9 -26 1 -6 16 -67 16 -73 0 -5 -17 -28 -15 -48 5 -15 16 -17 16
-29 0 -11 -15 -38 -17 -247 -17 -129 0 -238 4 -244 9 -12 13 -55 16 -78 6 -11
-5 -26 -3 -38 4 -16 10 -23 10 -36 -3 -12 -10 -22 -12 -34 -5 -24 13 -798 13
-812 -1 -6 -6 -64 -10 -139 -10 -155 0 -162 -3 -318 -145 -57 -52 -113 -98
-124 -100 -42 -10 -1525 -10 -1525 0 0 6 23 28 51 50 28 22 60 48 72 59 57 49
137 106 147 106 7 0 21 11 32 25 11 14 79 73 151 132 137 110 152 123 327 270
97 82 335 271 401 319 16 11 38 33 49 47 12 15 27 27 35 27 7 0 15 3 17 8 7
18 60 50 74 45 8 -3 14 1 14 11 0 15 64 80 120 121 24 18 79 61 224 178 22 18
85 70 140 115 56 46 113 91 129 100 34 21 35 48 2 54 -14 3 -28 2 -30 -2 -7
-11 -185 -23 -218 -15 -15 4 -27 11 -27 16 0 6 23 24 50 41 37 23 50 37 50 54
l0 24 -300 0 c-193 0 -300 4 -300 10 0 12 -17 13 -24 2z m-1971 -209 c501 -5
885 -11 855 -14 -55 -6 184 -11 635 -14 224 -1 338 9 319 28 -4 4 54 7 129 7
81 0 137 -4 137 -10 0 -5 -16 -22 -37 -37 -20 -15 -82 -65 -139 -110 -72 -58
-109 -81 -121 -77 -13 4 -14 3 -5 -3 10 -8 10 -12 -1 -22 -8 -6 -19 -11 -23
-10 -30 5 -52 -3 -57 -22 -3 -12 -10 -18 -15 -15 -16 10 -41 -4 -35 -20 3 -9
-2 -14 -16 -14 -16 0 -21 -6 -21 -25 0 -18 -4 -23 -15 -19 -8 4 -22 1 -30 -6
-8 -7 -15 -9 -16 -4 0 5 -5 -2 -10 -15 -6 -14 -15 -21 -24 -18 -8 4 -16 -2
-20 -12 -3 -11 -15 -21 -26 -24 -15 -4 -19 -11 -14 -25 4 -16 -6 -30 -51 -66
-31 -25 -61 -43 -66 -39 -6 3 -8 2 -5 -4 10 -15 -79 -84 -100 -77 -13 4 -14 3
-5 -3 18 -14 -19 -45 -44 -37 -14 4 -15 3 -5 -4 10 -8 9 -13 -10 -25 -12 -9
-27 -13 -33 -10 -6 3 -8 2 -3 -2 13 -15 -22 -43 -46 -37 -24 6 -48 32 -41 44
3 5 0 8 -5 8 -6 0 -11 -6 -11 -14 0 -30 13 -46 36 -46 13 0 24 -3 24 -7 -1
-13 -81 -68 -95 -65 -8 1 -16 -2 -20 -8 -4 -6 1 -7 12 -3 16 5 16 4 3 -9 -45
-46 -183 -148 -192 -142 -6 4 -8 3 -4 -4 8 -13 -82 -84 -97 -75 -5 3 -7 2 -4
-4 8 -13 -17 -36 -203 -184 -85 -67 -206 -165 -268 -217 -75 -62 -126 -97
-150 -103 -43 -10 -280 -26 -577 -38 -543 -23 -943 -42 -1080 -51 -175 -12
-483 -21 -442 -14 41 8 22 24 -29 24 -56 0 -57 16 -1 30 23 6 47 12 52 14 6 2
-5 6 -22 10 -34 8 -43 21 -20 29 12 4 15 266 4 469 -2 48 -2 90 1 92 6 7 6
105 0 111 -2 3 -1 35 4 72 4 37 6 69 3 71 -3 3 0 11 6 19 9 10 8 13 -1 13 -9
0 -9 4 -2 13 6 7 10 27 10 45 -1 24 -6 32 -20 32 -16 0 -18 6 -16 37 2 20 10
45 19 54 10 10 15 28 13 45 -3 16 -6 63 -8 105 -2 42 -7 87 -11 99 -5 15 -4
20 4 16 12 -8 15 14 12 114 -1 36 -6 69 -11 74 -4 4 -6 15 -3 24 5 11 3 13 -8
7 -8 -5 -7 -1 4 12 9 11 17 29 17 41 0 19 6 22 36 22 20 0 33 4 29 9 -3 6 19
12 52 14 116 7 1030 7 1918 0z m11020 -3 c260 -2 378 -7 310 -10 -60 -3 86 -6
325 -7 239 0 417 3 395 6 -90 14 419 21 1590 21 1168 0 1667 -6 1600 -20 -26
-6 -22 -8 28 -14 57 -8 79 -26 32 -26 -23 0 -24 -2 -15 -20 6 -11 15 -18 20
-15 5 3 11 1 15 -5 3 -5 2 -10 -3 -10 -5 0 -9 -6 -9 -12 -3 -41 -3 -91 0 -358
2 -162 0 -302 -4 -311 -5 -9 -6 -19 -2 -23 3 -3 5 -29 4 -58 -5 -98 -5 -114 4
-134 5 -10 9 -41 10 -67 1 -27 6 -52 12 -55 16 -11 2 -38 -51 -92 -54 -55 -53
-59 4 -30 46 24 61 7 21 -25 -61 -49 -185 -128 -236 -150 -131 -58 -524 -109
-955 -124 -244 -8 -1433 -7 -1990 3 -402 7 -2912 -10 -2935 -19 -19 -9 -143
-107 -404 -320 -73 -61 -185 -152 -248 -202 l-114 -93 -447 1 c-259 0 -439 4
-427 9 11 5 49 9 84 9 74 1 74 7 0 26 -37 10 -57 11 -66 4 -20 -18 -37 0 -19
20 9 10 13 21 9 25 -5 4 -2 6 6 4 7 -1 16 3 18 10 3 6 0 12 -6 12 -11 0 -3 31
11 41 5 3 5 16 0 30 -5 13 -10 92 -11 174 -1 150 -5 227 -15 298 -4 26 -2 36
6 31 7 -5 8 -2 3 6 -12 19 -7 389 5 420 1 3 1 10 0 15 -6 25 -3 245 3 251 4 4
2 13 -4 21 -14 16 21 48 66 59 24 6 14 9 -50 15 -245 24 -105 27 1265 27
l1425 1 -29 -22 c-16 -12 -108 -87 -205 -167 -98 -80 -198 -159 -224 -175 -26
-17 -47 -36 -47 -42 0 -10 129 -13 611 -13 387 0 608 -4 604 -10 -3 -5 8 -5
26 2 18 6 34 7 38 2 3 -5 121 -10 261 -11 140 -1 244 2 230 6 -18 5 0 10 65
15 158 12 237 27 340 63 55 20 114 35 130 35 21 -1 26 1 16 7 -11 7 -2 15 35
34 68 34 222 155 323 252 l84 81 -17 26 c-19 29 -67 52 -146 69 -97 21 -550
24 -2760 22 -1762 -1 -2147 1 -2070 11 87 11 92 13 57 20 -45 10 -55 27 -33
60 8 14 14 38 11 55 -2 17 1 33 6 37 6 4 6 11 -2 20 -8 10 -8 14 0 14 7 0 9
13 5 39 -3 22 -7 53 -8 70 0 17 -4 31 -7 31 -3 0 -4 11 -2 24 4 18 13 26 39
30 18 4 36 12 40 18 4 7 3 8 -4 4 -7 -4 -12 -2 -12 3 0 6 -10 11 -22 11 -13 0
-30 5 -38 10 -11 7 4 10 50 12 60 1 61 2 20 7 -39 5 -34 6 40 11 98 7 2709 7
3335 0z m-5011 -1339 c-6 -25 -10 -56 -8 -69 3 -12 -1 -32 -7 -43 -9 -17 -8
-20 1 -14 10 6 12 1 8 -19 -3 -14 -2 -26 1 -26 3 0 6 -69 5 -153 0 -94 4 -158
10 -166 8 -11 8 -13 -2 -7 -10 6 -11 1 -6 -18 3 -14 3 -34 -2 -43 -11 -24 -12
-73 -1 -73 4 0 5 -5 2 -10 -5 -9 -9 -114 -6 -157 1 -6 15 -14 31 -18 24 -5 28
-10 20 -20 -7 -8 -22 -10 -50 -5 -22 4 -43 3 -46 -1 -3 -5 0 -9 7 -9 7 0 10
-2 8 -4 -2 -3 -31 2 -64 10 -51 13 -137 14 -550 9 -269 -4 -500 -3 -513 2 -20
8 -5 22 155 150 195 155 255 203 348 278 184 149 502 402 513 409 7 4 20 2 28
-5 12 -10 20 -8 44 9 16 12 33 22 38 22 6 0 12 9 15 21 5 17 8 19 19 8 11 -10
12 -21 2 -58z m-9359 -257 c-1 -21 -7 -28 -25 -31 -34 -5 -36 -11 -7 -24 22
-10 25 -15 16 -32 -8 -14 -8 -18 0 -13 6 4 11 5 11 2 0 -2 3 -12 6 -20 4 -12
2 -15 -9 -11 -18 7 -27 -22 -16 -50 4 -11 8 -14 8 -7 1 20 17 14 18 -8 1 -11
-2 -20 -8 -20 -5 0 -9 -7 -9 -15 0 -8 3 -15 8 -15 10 0 9 -202 -2 -218 -4 -7
-2 -19 5 -28 10 -13 10 -17 -2 -25 -8 -5 -9 -9 -4 -9 6 0 11 -13 12 -29 2 -22
-3 -32 -18 -36 -10 -4 -17 -10 -14 -15 3 -5 -1 -11 -7 -13 -8 -3 -6 -6 5 -6 9
-1 17 -6 17 -12 0 -5 4 -8 9 -4 5 3 12 1 16 -5 4 -6 -5 -10 -22 -10 -15 0 -35
-5 -43 -10 -11 -7 2 -10 45 -11 l60 -1 -55 -8 c-70 -10 -963 -23 -972 -15 -9
9 24 37 424 358 321 257 370 294 381 285 2 -2 11 5 21 15 10 9 24 17 33 17 9
0 13 6 9 15 -4 11 1 15 19 15 18 0 25 5 25 20 0 21 14 27 24 11 4 -5 0 -11 -6
-13 -8 -3 -3 -10 12 -18 18 -9 22 -9 14 0 -7 6 -9 21 -6 32 4 18 7 19 16 5 7
-8 11 -27 11 -43z m7585 47 c144 -6 150 -7 90 -15 -65 -8 -65 -11 -6 -30 15
-5 17 -14 14 -56 -3 -28 -1 -50 3 -50 8 0 4 -33 -6 -49 -3 -5 -1 -12 4 -16 5
-3 8 -15 5 -28 -12 -52 -15 -205 -5 -212 14 -8 14 -42 1 -47 -7 -2 -6 -16 4
-40 l16 -37 -48 -6 c-82 -11 -79 -13 26 -14 56 0 102 2 102 7 0 4 11 12 25 19
31 14 32 4 2 -18 -34 -24 -94 -28 -452 -30 -181 -1 -357 -5 -389 -8 -52 -5
-61 -9 -75 -35 -9 -16 -18 -29 -21 -29 -3 0 -23 9 -45 21 -76 38 -139 42 -670
42 l-511 0 -29 -55 -30 -55 -2120 1 c-1166 0 -2142 4 -2170 9 -36 5 -41 8 -20
9 28 2 29 2 11 16 -19 14 -19 15 2 34 18 15 20 21 9 29 -10 8 -12 26 -7 59 3
27 3 62 0 78 -3 17 -3 45 1 63 4 19 3 32 -3 32 -6 0 -5 7 2 15 7 9 10 18 7 22
-4 3 -1 15 4 26 8 14 8 21 0 27 -15 9 18 39 49 45 27 5 39 15 19 16 -8 0 -6 4
6 9 11 5 659 8 1440 7 781 0 1382 -4 1335 -7 -88 -7 -85 -8 40 -16 92 -6 696
-10 768 -6 28 2 50 7 47 12 -9 15 91 20 394 21 211 0 316 4 338 12 18 7 80 55
139 107 58 52 120 103 137 113 29 16 82 17 722 16 379 -1 760 -4 845 -8z
m-835 -776 c22 -10 43 -22 47 -29 20 -30 1 -105 -46 -176 -178 -272 -206 -307
-272 -346 -86 -51 -125 -56 -483 -63 l-334 -6 -29 -35 c-16 -19 -63 -86 -104
-148 -48 -72 -83 -116 -100 -122 -32 -12 -321 -13 -328 -1 -3 5 51 91 121 192
70 101 205 301 300 444 186 278 204 301 237 309 11 3 230 3 486 1 408 -3 470
-6 505 -20z m1370 15 c3 -5 -2 -24 -11 -42 -22 -42 -103 -160 -121 -175 -10
-8 -124 -12 -400 -13 -213 0 -392 -4 -399 -8 -22 -12 -64 -74 -64 -94 0 -17
18 -18 306 -18 l306 0 -7 -27 c-9 -39 -116 -185 -145 -200 -18 -9 -106 -13
-326 -13 -225 0 -304 -3 -316 -12 -18 -16 -58 -81 -58 -97 0 -8 102 -11 374
-11 233 0 377 -4 381 -10 12 -19 -120 -216 -150 -224 -41 -11 -1114 -6 -1121
5 -3 6 21 50 54 97 65 93 530 787 547 817 6 9 28 20 49 24 66 10 1094 12 1101
1z m1090 -1 c46 -13 105 -68 105 -98 0 -30 -20 -66 -118 -214 -157 -237 -230
-293 -410 -313 -34 -4 -64 -9 -66 -13 -2 -3 6 -53 19 -111 13 -58 25 -124 28
-147 5 -41 4 -43 -21 -43 -15 0 -94 -2 -175 -5 -176 -5 -178 -4 -196 101 -21
119 -49 202 -73 215 -19 10 -86 7 -146 -8 -16 -4 -52 -50 -117 -148 -52 -79
-103 -146 -113 -149 -26 -8 -331 -10 -339 -2 -4 3 2 19 14 34 11 15 73 106
138 202 66 96 147 216 182 265 34 50 102 151 149 225 76 119 101 155 145 208
13 16 934 18 994 1z m1480 2 c3 -6 -28 -58 -68 -118 l-74 -108 -434 -5 c-239
-3 -435 -7 -436 -8 -16 -14 -63 -88 -63 -99 0 -11 55 -13 303 -13 167 0 306
-3 309 -6 8 -8 -34 -80 -90 -155 -37 -49 -55 -65 -82 -71 -19 -4 -162 -7 -317
-6 -214 1 -286 -2 -298 -12 -8 -7 -65 -86 -126 -176 -97 -143 -114 -164 -137
-164 -15 0 -91 -1 -169 -3 -79 -2 -145 -2 -148 1 -8 9 28 67 145 232 64 91
171 248 238 350 67 102 151 227 187 278 l66 92 594 0 c360 0 596 -4 600 -9z
m1080 -16 c64 -16 105 -50 105 -86 0 -32 -22 -68 -208 -349 -258 -389 -290
-424 -425 -472 -60 -21 -75 -22 -493 -23 l-431 0 -52 24 c-54 26 -69 49 -57
96 6 22 197 314 370 565 108 157 151 192 286 238 88 30 790 35 905 7z m1316
-1 c65 -30 79 -67 50 -135 -28 -68 -159 -263 -228 -339 -76 -84 -124 -106
-303 -138 -30 -5 -45 -13 -44 -23 1 -8 11 -59 22 -114 11 -55 22 -117 25 -137
l6 -38 -127 -1 c-228 -3 -232 -3 -247 17 -7 10 -21 57 -30 104 -29 151 -43
189 -72 196 -25 7 -119 -1 -148 -12 -13 -5 -77 -96 -200 -287 -8 -13 -41 -17
-170 -22 -182 -7 -198 -3 -175 43 8 16 72 112 143 213 106 153 363 534 441
656 12 17 30 34 41 36 11 3 234 4 495 3 461 -1 476 -2 521 -22z m561 9 c9 -10
26 -52 38 -93 38 -133 81 -260 91 -265 5 -3 73 33 151 81 79 47 157 94 174
104 17 10 78 47 137 84 59 36 124 73 144 81 39 16 317 33 348 21 14 -5 14 -8
0 -37 -9 -17 -35 -56 -57 -88 -63 -89 -330 -486 -365 -543 -18 -29 -31 -54
-29 -56 6 -6 116 78 372 282 321 257 370 296 446 353 123 93 105 87 291 91
115 3 167 1 167 -7 0 -29 -42 -455 -50 -513 -13 -85 -13 -161 0 -156 11 4 92
120 285 408 79 119 156 227 170 240 25 24 33 25 172 28 80 2 149 0 154 -5 4
-4 35 -85 67 -178 33 -94 67 -188 75 -210 9 -22 21 -59 27 -83 9 -37 13 -42
26 -31 18 15 122 162 243 346 51 78 101 145 110 148 9 4 87 9 175 11 l158 4
-7 -27 c-6 -27 -22 -52 -144 -228 -30 -44 -147 -217 -259 -385 -113 -168 -212
-308 -221 -312 -9 -4 -86 -7 -173 -7 l-156 -1 -12 53 c-15 63 -120 367 -145
420 -9 20 -21 37 -25 37 -4 0 -78 -105 -164 -234 -86 -128 -166 -242 -177
-252 -19 -17 -43 -19 -248 -22 -125 -2 -250 1 -277 5 l-49 9 4 82 3 82 -163 1
c-355 3 -313 12 -460 -100 l-89 -68 -107 -6 c-58 -4 -200 -7 -315 -7 -180 0
-208 2 -208 15 0 14 98 164 242 369 32 44 54 82 49 84 -12 4 -83 -32 -136 -68
-90 -61 -188 -110 -245 -121 -56 -11 -213 -9 -225 3 -3 3 -20 53 -37 112 -17
58 -35 106 -39 106 -12 0 -69 -80 -213 -296 -110 -167 -131 -192 -158 -198
-17 -3 -95 -6 -174 -6 -115 0 -144 3 -144 14 0 13 107 178 161 247 16 20 123
178 237 350 115 173 215 319 223 326 19 16 55 20 195 22 104 1 123 -1 136 -16z
m4582 8 c102 -7 111 -9 132 -35 49 -56 39 -106 -43 -218 l-43 -58 -164 0
c-171 0 -192 5 -162 39 36 39 26 41 -223 41 -279 0 -257 8 -348 -128 -98 -144
-213 -329 -213 -341 0 -12 302 -16 433 -5 72 7 76 8 82 34 3 16 17 32 31 39
33 15 344 15 344 0 0 -15 -49 -84 -101 -143 -63 -71 -131 -121 -196 -146 -56
-21 -72 -22 -468 -22 -454 0 -479 3 -540 62 -40 39 -39 48 31 160 77 124 349
516 401 578 71 84 158 126 288 142 81 10 623 11 759 1z m1461 -2 c11 -11 -134
-213 -158 -221 -12 -3 -192 -6 -399 -7 l-377 -1 -36 -47 c-19 -25 -34 -51 -32
-57 2 -8 101 -12 305 -14 274 -2 302 -4 302 -19 0 -22 -107 -179 -139 -204
-22 -18 -44 -19 -330 -19 -168 0 -311 -4 -317 -8 -16 -11 -64 -85 -64 -99 0
-10 80 -13 380 -13 297 0 380 -3 380 -12 0 -21 -130 -212 -148 -220 -9 -4
-266 -7 -570 -7 -472 -1 -553 1 -558 13 -3 9 18 47 49 89 30 41 108 152 172
248 65 96 150 221 190 279 39 58 100 151 135 207 68 111 64 108 170 117 78 6
1038 1 1045 -5z"/>
<path d="M16817 2630 c-19 -15 -40 -20 -85 -20 -33 0 -78 -6 -100 -14 -46 -17
-371 -35 -631 -36 -46 0 -81 -3 -77 -7 7 -8 462 -7 571 1 138 11 293 35 301
47 3 5 22 9 42 9 44 1 83 24 56 34 -28 11 -51 7 -77 -14z"/>
<path d="M15405 2220 l-180 -6 260 -4 c143 -2 274 -4 290 -5 17 -1 262 -4 545
-5 489 -3 764 4 820 21 28 8 -1458 8 -1735 -1z"/>
<path d="M7469 1133 c-47 -53 -58 -69 -73 -104 l-15 -36 225 -1 225 0 50 75
c27 42 49 79 49 84 0 5 -98 9 -218 9 l-218 0 -25 -27z"/>
<path d="M10186 1163 c-237 -4 -226 0 -276 -89 -51 -88 -59 -84 179 -84 115 0
221 4 235 9 15 6 40 37 65 80 45 77 49 92 24 89 -10 -2 -112 -4 -227 -5z"/>
<path d="M12683 1160 l-175 -5 -28 -35 c-43 -54 -290 -429 -290 -440 0 -7 87
-9 247 -8 l247 3 70 100 c122 177 256 374 256 379 0 8 -151 11 -327 6z"/>
<path d="M13787 1128 c-47 -63 -77 -113 -77 -126 0 -10 44 -13 218 -11 119 1
227 5 238 9 17 7 104 137 104 156 0 2 -103 4 -229 4 l-230 0 -24 -32z"/>
<path d="M16625 974 c-38 -31 -78 -60 -87 -65 -10 -5 -18 -19 -18 -29 0 -18 7
-20 89 -20 84 0 89 1 95 23 8 32 7 147 -1 147 -5 0 -39 -25 -78 -56z"/>
<path d="M465 1009 c-55 -3 356 -6 914 -7 558 -1 1012 0 1010 2 -7 7 -1810 12
-1924 5z"/>
</g>
</svg>
